<svg id="visual" viewBox="0 0 900 600" width="900" height="600" xmlns="http://www.w3.org/2000/svg" xmlns:xlink="http://www.w3.org/1999/xlink" version="1.1"><rect x="0" y="0" width="900" height="600" fill="#001220"></rect><path d="M0 323L16.7 323.5C33.3 324 66.7 325 100 326.5C133.3 328 166.7 330 200 327.8C233.3 325.7 266.7 319.3 300 323.5C333.3 327.7 366.7 342.3 400 335.5C433.3 328.7 466.7 300.3 500 306C533.3 311.7 566.7 351.3 600 351.8C633.3 352.3 666.7 313.7 700 320.8C733.3 328 766.7 381 800 381.2C833.3 381.3 866.7 328.7 883.3 302.3L900 276L900 601L883.3 601C866.7 601 833.3 601 800 601C766.7 601 733.3 601 700 601C666.7 601 633.3 601 600 601C566.7 601 533.3 601 500 601C466.7 601 433.3 601 400 601C366.7 601 333.3 601 300 601C266.7 601 233.3 601 200 601C166.7 601 133.3 601 100 601C66.7 601 33.3 601 16.7 601L0 601Z" fill="#fa7268"></path><path d="M0 357L16.7 354C33.3 351 66.7 345 100 341.2C133.3 337.3 166.7 335.7 200 352.3C233.3 369 266.7 404 300 409.2C333.3 414.3 366.7 389.7 400 391.5C433.3 393.3 466.7 421.7 500 415C533.3 408.3 566.7 366.7 600 353C633.3 339.3 666.7 353.7 700 373.3C733.3 393 766.7 418 800 424.2C833.3 430.3 866.7 417.7 883.3 411.3L900 405L900 601L883.3 601C866.7 601 833.3 601 800 601C766.7 601 733.3 601 700 601C666.7 601 633.3 601 600 601C566.7 601 533.3 601 500 601C466.7 601 433.3 601 400 601C366.7 601 333.3 601 300 601C266.7 601 233.3 601 200 601C166.7 601 133.3 601 100 601C66.7 601 33.3 601 16.7 601L0 601Z" fill="#f16367"></path><path d="M0 402L16.7 400C33.3 398 66.7 394 100 390.3C133.3 386.7 166.7 383.3 200 389.2C233.3 395 266.7 410 300 413C333.3 416 366.7 407 400 404.3C433.3 401.7 466.7 405.3 500 408C533.3 410.7 566.7 412.3 600 426.5C633.3 440.7 666.7 467.3 700 464.8C733.3 462.3 766.7 430.7 800 410.8C833.3 391 866.7 383 883.3 379L900 375L900 601L883.3 601C866.7 601 833.3 601 800 601C766.7 601 733.3 601 700 601C666.7 601 633.3 601 600 601C566.7 601 533.3 601 500 601C466.7 601 433.3 601 400 601C366.7 601 333.3 601 300 601C266.7 601 233.3 601 200 601C166.7 601 133.3 601 100 601C66.7 601 33.3 601 16.7 601L0 601Z" fill="#e85467"></path><path d="M0 413L16.7 413.2C33.3 413.3 66.7 413.7 100 426.8C133.3 440 166.7 466 200 479.8C233.3 493.7 266.7 495.3 300 487.5C333.3 479.7 366.7 462.3 400 449C433.3 435.7 466.7 426.3 500 421.3C533.3 416.3 566.7 415.7 600 414.5C633.3 413.3 666.7 411.7 700 427.3C733.3 443 766.7 476 800 480.8C833.3 485.7 866.7 462.3 883.3 450.7L900 439L900 601L883.3 601C866.7 601 833.3 601 800 601C766.7 601 733.3 601 700 601C666.7 601 633.3 601 600 601C566.7 601 533.3 601 500 601C466.7 601 433.3 601 400 601C366.7 601 333.3 601 300 601C266.7 601 233.3 601 200 601C166.7 601 133.3 601 100 601C66.7 601 33.3 601 16.7 601L0 601Z" fill="#de4467"></path><path d="M0 560L16.7 549.3C33.3 538.7 66.7 517.3 100 505.8C133.3 494.3 166.7 492.7 200 488.8C233.3 485 266.7 479 300 489.7C333.3 500.3 366.7 527.7 400 533.3C433.3 539 466.7 523 500 512.5C533.3 502 566.7 497 600 492C633.3 487 666.7 482 700 478C733.3 474 766.7 471 800 469C833.3 467 866.7 466 883.3 465.5L900 465L900 601L883.3 601C866.7 601 833.3 601 800 601C766.7 601 733.3 601 700 601C666.7 601 633.3 601 600 601C566.7 601 533.3 601 500 601C466.7 601 433.3 601 400 601C366.7 601 333.3 601 300 601C266.7 601 233.3 601 200 601C166.7 601 133.3 601 100 601C66.7 601 33.3 601 16.7 601L0 601Z" fill="#d23467"></path><path d="M0 514L16.7 513.8C33.3 513.7 66.7 513.3 100 524.2C133.3 535 166.7 557 200 562.7C233.3 568.3 266.7 557.7 300 550.2C333.3 542.7 366.7 538.3 400 542C433.3 545.7 466.7 557.3 500 565.2C533.3 573 566.7 577 600 575.3C633.3 573.7 666.7 566.3 700 558.5C733.3 550.7 766.7 542.3 800 538.3C833.3 534.3 866.7 534.7 883.3 534.8L900 535L900 601L883.3 601C866.7 601 833.3 601 800 601C766.7 601 733.3 601 700 601C666.7 601 633.3 601 600 601C566.7 601 533.3 601 500 601C466.7 601 433.3 601 400 601C366.7 601 333.3 601 300 601C266.7 601 233.3 601 200 601C166.7 601 133.3 601 100 601C66.7 601 33.3 601 16.7 601L0 601Z" fill="#c62368"></path></svg>