<svg id="visual" viewBox="0 0 900 600" width="900" height="600" xmlns="http://www.w3.org/2000/svg" xmlns:xlink="http://www.w3.org/1999/xlink" version="1.1"><path d="M0 43L6.5 51C13 59 26 75 39 75C52 75 65 59 78 51C91 43 104 43 117.2 52C130.3 61 143.7 79 156.8 81C170 83 183 69 196 63C209 57 222 59 235 63C248 67 261 73 274 72C287 71 300 63 313 60C326 57 339 59 352 66C365 73 378 85 391 83C404 81 417 65 430.2 58C443.3 51 456.7 53 469.8 61C483 69 496 83 509 86C522 89 535 81 548 77C561 73 574 73 587 69C600 65 613 57 626 61C639 65 652 81 665 80C678 79 691 61 704 57C717 53 730 63 743.2 63C756.3 63 769.7 53 782.8 55C796 57 809 71 822 80C835 89 848 93 861 91C874 89 887 81 893.5 77L900 73L900 0L893.5 0C887 0 874 0 861 0C848 0 835 0 822 0C809 0 796 0 782.8 0C769.7 0 756.3 0 743.2 0C730 0 717 0 704 0C691 0 678 0 665 0C652 0 639 0 626 0C613 0 600 0 587 0C574 0 561 0 548 0C535 0 522 0 509 0C496 0 483 0 469.8 0C456.7 0 443.3 0 430.2 0C417 0 404 0 391 0C378 0 365 0 352 0C339 0 326 0 313 0C300 0 287 0 274 0C261 0 248 0 235 0C222 0 209 0 196 0C183 0 170 0 156.8 0C143.7 0 130.3 0 117.2 0C104 0 91 0 78 0C65 0 52 0 39 0C26 0 13 0 6.5 0L0 0Z" fill="#6198ff"></path><path d="M0 235L6.5 237C13 239 26 243 39 245C52 247 65 247 78 236C91 225 104 203 117.2 203C130.3 203 143.7 225 156.8 233C170 241 183 235 196 231C209 227 222 225 235 231C248 237 261 251 274 248C287 245 300 225 313 222C326 219 339 233 352 235C365 237 378 227 391 222C404 217 417 217 430.2 227C443.3 237 456.7 257 469.8 265C483 273 496 269 509 276C522 283 535 301 548 289C561 277 574 235 587 225C600 215 613 237 626 242C639 247 652 235 665 227C678 219 691 215 704 227C717 239 730 267 743.2 270C756.3 273 769.7 251 782.8 251C796 251 809 273 822 272C835 271 848 247 861 251C874 255 887 287 893.5 303L900 319L900 71L893.5 75C887 79 874 87 861 89C848 91 835 87 822 78C809 69 796 55 782.8 53C769.7 51 756.3 61 743.2 61C730 61 717 51 704 55C691 59 678 77 665 78C652 79 639 63 626 59C613 55 600 63 587 67C574 71 561 71 548 75C535 79 522 87 509 84C496 81 483 67 469.8 59C456.7 51 443.3 49 430.2 56C417 63 404 79 391 81C378 83 365 71 352 64C339 57 326 55 313 58C300 61 287 69 274 70C261 71 248 65 235 61C222 57 209 55 196 61C183 67 170 81 156.8 79C143.7 77 130.3 59 117.2 50C104 41 91 41 78 49C65 57 52 73 39 73C26 73 13 57 6.5 49L0 41Z" fill="#3c80ff"></path><path d="M0 349L6.5 349C13 349 26 349 39 356C52 363 65 377 78 363C91 349 104 307 117.2 298C130.3 289 143.7 313 156.8 332C170 351 183 365 196 358C209 351 222 323 235 315C248 307 261 319 274 327C287 335 300 339 313 339C326 339 339 335 352 334C365 333 378 335 391 332C404 329 417 321 430.2 330C443.3 339 456.7 365 469.8 373C483 381 496 371 509 375C522 379 535 397 548 385C561 373 574 331 587 318C600 305 613 321 626 331C639 341 652 345 665 340C678 335 691 321 704 328C717 335 730 363 743.2 366C756.3 369 769.7 347 782.8 343C796 339 809 353 822 348C835 343 848 319 861 326C874 333 887 371 893.5 390L900 409L900 317L893.5 301C887 285 874 253 861 249C848 245 835 269 822 270C809 271 796 249 782.8 249C769.7 249 756.3 271 743.2 268C730 265 717 237 704 225C691 213 678 217 665 225C652 233 639 245 626 240C613 235 600 213 587 223C574 233 561 275 548 287C535 299 522 281 509 274C496 267 483 271 469.8 263C456.7 255 443.3 235 430.2 225C417 215 404 215 391 220C378 225 365 235 352 233C339 231 326 217 313 220C300 223 287 243 274 246C261 249 248 235 235 229C222 223 209 225 196 229C183 233 170 239 156.8 231C143.7 223 130.3 201 117.2 201C104 201 91 223 78 234C65 245 52 245 39 243C26 241 13 237 6.5 235L0 233Z" fill="#0066ff"></path><path d="M0 493L6.5 494C13 495 26 497 39 506C52 515 65 531 78 533C91 535 104 523 117.2 517C130.3 511 143.7 511 156.8 515C170 519 183 527 196 526C209 525 222 515 235 517C248 519 261 533 274 536C287 539 300 531 313 524C326 517 339 511 352 511C365 511 378 517 391 521C404 525 417 527 430.2 531C443.3 535 456.7 541 469.8 536C483 531 496 515 509 513C522 511 535 523 548 523C561 523 574 511 587 505C600 499 613 499 626 502C639 505 652 511 665 510C678 509 691 501 704 499C717 497 730 501 743.2 507C756.3 513 769.7 521 782.8 525C796 529 809 529 822 523C835 517 848 505 861 505C874 505 887 517 893.5 523L900 529L900 407L893.5 388C887 369 874 331 861 324C848 317 835 341 822 346C809 351 796 337 782.8 341C769.7 345 756.3 367 743.2 364C730 361 717 333 704 326C691 319 678 333 665 338C652 343 639 339 626 329C613 319 600 303 587 316C574 329 561 371 548 383C535 395 522 377 509 373C496 369 483 379 469.8 371C456.7 363 443.3 337 430.2 328C417 319 404 327 391 330C378 333 365 331 352 332C339 333 326 337 313 337C300 337 287 333 274 325C261 317 248 305 235 313C222 321 209 349 196 356C183 363 170 349 156.8 330C143.7 311 130.3 287 117.2 296C104 305 91 347 78 361C65 375 52 361 39 354C26 347 13 347 6.5 347L0 347Z" fill="#0059dd"></path><path d="M0 601L6.5 601C13 601 26 601 39 601C52 601 65 601 78 601C91 601 104 601 117.2 601C130.3 601 143.7 601 156.8 601C170 601 183 601 196 601C209 601 222 601 235 601C248 601 261 601 274 601C287 601 300 601 313 601C326 601 339 601 352 601C365 601 378 601 391 601C404 601 417 601 430.2 601C443.3 601 456.7 601 469.8 601C483 601 496 601 509 601C522 601 535 601 548 601C561 601 574 601 587 601C600 601 613 601 626 601C639 601 652 601 665 601C678 601 691 601 704 601C717 601 730 601 743.2 601C756.3 601 769.7 601 782.8 601C796 601 809 601 822 601C835 601 848 601 861 601C874 601 887 601 893.5 601L900 601L900 527L893.5 521C887 515 874 503 861 503C848 503 835 515 822 521C809 527 796 527 782.8 523C769.7 519 756.3 511 743.2 505C730 499 717 495 704 497C691 499 678 507 665 508C652 509 639 503 626 500C613 497 600 497 587 503C574 509 561 521 548 521C535 521 522 509 509 511C496 513 483 529 469.8 534C456.7 539 443.3 533 430.2 529C417 525 404 523 391 519C378 515 365 509 352 509C339 509 326 515 313 522C300 529 287 537 274 534C261 531 248 517 235 515C222 513 209 523 196 524C183 525 170 517 156.8 513C143.7 509 130.3 509 117.2 515C104 521 91 533 78 531C65 529 52 513 39 504C26 495 13 493 6.5 492L0 491Z" fill="#aa3434"></path></svg>