<svg xmlns="http://www.w3.org/2000/svg" viewBox="0 0 1440 320"><path fill="#ffff" fill-opacity="1" d="M0,320L13.3,320C26.7,320,53,320,80,272C106.7,224,133,128,160,74.7C186.7,21,213,11,240,48C266.7,85,293,171,320,176C346.7,181,373,107,400,69.3C426.7,32,453,32,480,53.3C506.7,75,533,117,560,160C586.7,203,613,245,640,261.3C666.7,277,693,267,720,218.7C746.7,171,773,85,800,90.7C826.7,96,853,192,880,213.3C906.7,235,933,181,960,144C986.7,107,1013,85,1040,90.7C1066.7,96,1093,128,1120,144C1146.7,160,1173,160,1200,165.3C1226.7,171,1253,181,1280,154.7C1306.7,128,1333,64,1360,58.7C1386.7,53,1413,107,1427,133.3L1440,160L1440,320L1426.7,320C1413.3,320,1387,320,1360,320C1333.3,320,1307,320,1280,320C1253.3,320,1227,320,1200,320C1173.3,320,1147,320,1120,320C1093.3,320,1067,320,1040,320C1013.3,320,987,320,960,320C933.3,320,907,320,880,320C853.3,320,827,320,800,320C773.3,320,747,320,720,320C693.3,320,667,320,640,320C613.3,320,587,320,560,320C533.3,320,507,320,480,320C453.3,320,427,320,400,320C373.3,320,347,320,320,320C293.3,320,267,320,240,320C213.3,320,187,320,160,320C133.3,320,107,320,80,320C53.3,320,27,320,13,320L0,320Z"></path></svg>