<svg id="visual" viewBox="0 0 900 600" width="900" height="600" xmlns="http://www.w3.org/2000/svg" xmlns:xlink="http://www.w3.org/1999/xlink" version="1.1"><g transform="translate(443.18278280652055 306.7892982321533)"><path d="M146.8 -248.2C199.9 -223.6 259.3 -203.8 282.9 -163.2C306.5 -122.7 294.2 -61.3 293.1 -0.7C291.9 60 301.8 120 271.3 148.4C240.7 176.9 169.6 173.7 117.6 181.7C65.7 189.7 32.8 208.9 -14.8 234.6C-62.5 260.3 -125 292.5 -177.5 284.8C-230.1 277.2 -272.7 229.6 -281.7 175.5C-290.8 121.3 -266.4 60.7 -240.9 14.7C-215.5 -31.3 -188.9 -62.5 -170.2 -99.9C-151.4 -137.3 -140.5 -180.8 -113.4 -220.5C-86.3 -260.2 -43.2 -296.1 1.8 -299.3C46.8 -302.5 93.7 -272.9 146.8 -248.2" fill="rgb(170,52,52,0.1)"></path></g></svg>