<svg id="visual" viewBox="0 0 900 600" width="900" height="600" xmlns="http://www.w3.org/2000/svg" xmlns:xlink="http://www.w3.org/1999/xlink" version="1.1"><g transform="translate(478.3758787704576 235.63551623273253)"><path d="M82.4 -130.7C113.2 -125 148.8 -115.7 167.4 -93.4C186 -71 187.5 -35.5 205.4 10.3C223.3 56.2 257.6 112.3 238.1 133.1C218.6 153.9 145.3 139.3 96.6 159.1C48 178.8 24 232.9 -19.2 266.2C-62.5 299.6 -125 312.2 -147.9 277.6C-170.9 243 -154.3 161.3 -181.9 107.1C-209.5 53 -281.2 26.5 -297.1 -9.2C-313 -44.8 -273 -89.7 -232 -120.6C-191 -151.4 -149 -168.4 -110.2 -169.4C-71.3 -170.4 -35.7 -155.5 -4.9 -147C25.8 -138.5 51.7 -136.4 82.4 -130.7" fill="rgb(170,2,52,0.1)"></path></g></svg>