<svg id="visual" viewBox="0 0 900 600" width="900" height="600" xmlns="http://www.w3.org/2000/svg" xmlns:xlink="http://www.w3.org/1999/xlink" version="1.1"><g transform="translate(450.31604614817104 275.0637802042185)"><path d="M161.5 -268.9C198 -258.7 208.6 -192.6 226.2 -138.5C243.7 -84.3 268.4 -42.2 258.9 -5.5C249.5 31.3 205.9 62.5 181.1 104.1C156.3 145.6 150.1 197.5 123.1 240.7C96 283.9 48 318.5 -1 320.2C-50 321.9 -100 290.9 -142.6 256.6C-185.2 222.4 -220.3 184.9 -226.8 141.6C-233.3 98.3 -211.2 49.2 -220.7 -5.5C-230.2 -60.2 -271.4 -120.3 -259.5 -154.3C-247.6 -188.2 -182.5 -195.8 -130.4 -197.1C-78.3 -198.3 -39.2 -193.2 11.7 -213.4C62.5 -233.6 125 -279.2 161.5 -268.9" fill="rgb(170,52,52,.1)"></path></g></svg>