<svg viewBox="0 0 200 200" xmlns="http://www.w3.org/2000/svg">
  <path fill="rgb(170,52,52,.1)" d="M19.3,-44.7C23.2,-31.3,23.1,-22.3,33,-15.6C42.9,-8.9,62.8,-4.4,63.2,0.2C63.5,4.9,44.4,9.7,36.5,20C28.7,30.3,32.2,46,28,48.3C23.7,50.6,11.9,39.6,-0.7,40.8C-13.3,42,-26.6,55.5,-32.5,54.2C-38.4,52.8,-37,36.7,-46.6,25.2C-56.2,13.7,-76.8,6.8,-77.3,-0.3C-77.8,-7.4,-58.1,-14.8,-45.3,-20.7C-32.4,-26.6,-26.4,-31,-20,-42.9C-13.6,-54.8,-6.8,-74.1,0.5,-74.9C7.8,-75.7,15.5,-58,19.3,-44.7Z" transform="translate(100 100)" />
</svg>