<svg id="visual" viewBox="0 0 900 600" width="900" height="600" xmlns="http://www.w3.org/2000/svg" xmlns:xlink="http://www.w3.org/1999/xlink" version="1.1"><g fill="rgb(170,52,52,.1)"><path d="M31.8 18.4L31.8 82.1L-31.8 82.1L-31.8 18.4L-87 -13.5L-55.2 -68.6L0 -36.8L55.2 -68.6L87 -13.5Z" transform="translate(724 137)"></path><path d="M14 8.1L14 36.2L-14 36.2L-14 8.1L-38.3 -5.9L-24.3 -30.2L0 -16.2L24.3 -30.2L38.3 -5.9Z" transform="translate(591 451)"></path><path d="M25.4 14.6L25.4 65.4L-25.4 65.4L-25.4 14.6L-69.3 -10.7L-43.9 -54.7L0 -29.3L43.9 -54.7L69.3 -10.7Z" transform="translate(84 360)"></path><path d="M23.5 13.6L23.5 60.5L-23.5 60.5L-23.5 13.6L-64.1 -9.9L-40.7 -50.6L0 -27.1L40.7 -50.6L64.1 -9.9Z" transform="translate(27 26)"></path><path d="M14.3 8.3L14.3 36.9L-14.3 36.9L-14.3 8.3L-39.1 -6L-24.8 -30.8L0 -16.5L24.8 -30.8L39.1 -6Z" transform="translate(360 62)"></path><path d="M16.2 9.3L16.2 41.7L-16.2 41.7L-16.2 9.3L-44.2 -6.8L-28 -34.9L0 -18.7L28 -34.9L44.2 -6.8Z" transform="translate(834 418)"></path><path d="M16.7 9.7L16.7 43.1L-16.7 43.1L-16.7 9.7L-45.7 -7.1L-29 -36.1L0 -19.3L29 -36.1L45.7 -7.1Z" transform="translate(240 588)"></path><path d="M23.2 13.4L23.2 59.8L-23.2 59.8L-23.2 13.4L-63.4 -9.8L-40.2 -50L0 -26.8L40.2 -50L63.4 -9.8Z" transform="translate(367 301)"></path></g></svg>